<svg width="20" height="14" viewBox="0 0 20 14" fill="none" xmlns="http://www.w3.org/2000/svg">
<path d="M8.22817 6.39998C8.64321 6.19121 8.95698 5.95869 9.172 5.70742C9.55453 5.25488 9.7433 4.65483 9.7433 3.91102C9.7433 3.18721 9.55453 2.56841 9.177 2.04962C8.54695 1.20455 7.48061 0.772014 5.97299 0.749512H0V12.9418H5.56921C6.19676 12.9418 6.77806 12.888 7.3156 12.778C7.85314 12.6667 8.31818 12.463 8.71196 12.1654C9.06199 11.9067 9.35452 11.5854 9.58704 11.2066C9.95457 10.6341 10.1383 9.98527 10.1383 9.26271C10.1383 8.56265 9.97707 7.96635 9.65704 7.47631C9.33327 6.98627 8.85823 6.62749 8.22817 6.39998ZM2.46395 2.86719H5.15417C5.74547 2.86719 6.23301 2.93094 6.61554 3.0572C7.05808 3.24097 7.27935 3.61475 7.27935 4.18479C7.27935 4.69608 7.11058 5.05361 6.77681 5.25488C6.44053 5.45615 6.00424 5.55741 5.4692 5.55741H2.46395V2.86719ZM6.71805 10.6116C6.42053 10.7553 6.00174 10.8266 5.46545 10.8266H2.46395V7.57507H5.5067C6.03675 7.57882 6.44928 7.64883 6.7443 7.78009C7.26935 8.01761 7.53062 8.45264 7.53062 9.08894C7.53062 9.83901 7.2606 10.344 6.71805 10.6116Z" fill="white"/>
<path d="M18.0778 1.31824H12.7811V2.83586H18.0778V1.31824Z" fill="white"/>
<path d="M19.9179 7.30756C19.8078 6.60125 19.5653 5.97995 19.1878 5.44366C18.774 4.83611 18.249 4.39107 17.6102 4.1098C16.9739 3.82728 16.2576 3.68601 15.46 3.68726C14.1211 3.68726 13.0335 4.10605 12.1922 4.93736C11.3534 5.77118 10.9334 6.97003 10.9334 8.53266C10.9334 10.199 11.3972 11.4029 12.3297 12.1417C13.2586 12.8818 14.3312 13.2505 15.5488 13.2505C17.0226 13.2505 18.169 12.8117 18.9878 11.9367C19.5116 11.3841 19.8078 10.8403 19.8729 10.3065H17.4327C17.2914 10.5703 17.1276 10.7766 16.9401 10.9266C16.6001 11.2016 16.1576 11.3391 15.615 11.3391C15.0987 11.3391 14.6612 11.2254 14.2962 10.9991C13.6936 10.6366 13.3786 10.0015 13.3386 9.0977H19.9979C20.0079 8.31889 19.9829 7.72009 19.9179 7.30756ZM13.3986 7.54132C13.4861 6.95503 13.6986 6.48999 14.0361 6.14621C14.3737 5.80368 14.8512 5.63117 15.4625 5.62992C16.0263 5.62992 16.4976 5.79118 16.8814 6.11496C17.2601 6.44124 17.4739 6.91502 17.5177 7.54132H13.3986Z" fill="white"/>
</svg>
